<mxfile host="Electron" modified="2023-10-19T18:58:16.015Z" agent="Mozilla/5.0 (Windows NT 10.0; Win64; x64) AppleWebKit/537.36 (KHTML, like Gecko) draw.io/21.4.0 Chrome/112.0.5615.204 Electron/24.5.1 Safari/537.36" etag="nP1tTeZSD8M6tRcD-ScD" version="21.4.0" type="device">
  <diagram name="Page-1" id="30X0jJcR0-qBjYe12jsh">
    <mxGraphModel dx="1098" dy="820" grid="1" gridSize="10" guides="1" tooltips="1" connect="1" arrows="1" fold="1" page="1" pageScale="1" pageWidth="1019" pageHeight="1320" math="0" shadow="0">
      <root>
        <mxCell id="0" />
        <mxCell id="1" parent="0" />
        <mxCell id="CeJ-HBvOXXxMZbBYNa6p-7" style="rounded=0;orthogonalLoop=1;jettySize=auto;html=1;exitX=0.5;exitY=0;exitDx=0;exitDy=0;endArrow=none;endFill=0;entryX=0;entryY=0.5;entryDx=0;entryDy=0;" edge="1" parent="1" source="CeJ-HBvOXXxMZbBYNa6p-3" target="CeJ-HBvOXXxMZbBYNa6p-4">
          <mxGeometry relative="1" as="geometry" />
        </mxCell>
        <mxCell id="CeJ-HBvOXXxMZbBYNa6p-1" value="" style="ellipse;whiteSpace=wrap;html=1;aspect=fixed;fontSize=17;fontStyle=1" vertex="1" parent="1">
          <mxGeometry x="480" y="160" width="40" height="40" as="geometry" />
        </mxCell>
        <mxCell id="CeJ-HBvOXXxMZbBYNa6p-11" style="rounded=0;orthogonalLoop=1;jettySize=auto;html=1;exitX=0.5;exitY=0;exitDx=0;exitDy=0;entryX=0.275;entryY=1.05;entryDx=0;entryDy=0;entryPerimeter=0;endArrow=none;endFill=0;" edge="1" parent="1" source="CeJ-HBvOXXxMZbBYNa6p-3" target="CeJ-HBvOXXxMZbBYNa6p-1">
          <mxGeometry relative="1" as="geometry" />
        </mxCell>
        <mxCell id="CeJ-HBvOXXxMZbBYNa6p-2" value="" style="ellipse;whiteSpace=wrap;html=1;aspect=fixed;fontSize=17;fontStyle=1" vertex="1" parent="1">
          <mxGeometry x="380" y="240" width="40" height="40" as="geometry" />
        </mxCell>
        <mxCell id="CeJ-HBvOXXxMZbBYNa6p-10" style="rounded=0;orthogonalLoop=1;jettySize=auto;html=1;entryX=1.05;entryY=0.675;entryDx=0;entryDy=0;endArrow=none;endFill=0;entryPerimeter=0;" edge="1" parent="1" target="CeJ-HBvOXXxMZbBYNa6p-2">
          <mxGeometry relative="1" as="geometry">
            <mxPoint x="540" y="360" as="sourcePoint" />
          </mxGeometry>
        </mxCell>
        <mxCell id="CeJ-HBvOXXxMZbBYNa6p-3" value="" style="ellipse;whiteSpace=wrap;html=1;aspect=fixed;fontSize=17;fontStyle=1" vertex="1" parent="1">
          <mxGeometry x="420" y="340" width="40" height="40" as="geometry" />
        </mxCell>
        <mxCell id="CeJ-HBvOXXxMZbBYNa6p-8" style="rounded=0;orthogonalLoop=1;jettySize=auto;html=1;exitX=-0.05;exitY=0.325;exitDx=0;exitDy=0;entryX=1;entryY=0.5;entryDx=0;entryDy=0;endArrow=none;endFill=0;exitPerimeter=0;" edge="1" parent="1" source="CeJ-HBvOXXxMZbBYNa6p-4" target="CeJ-HBvOXXxMZbBYNa6p-2">
          <mxGeometry relative="1" as="geometry" />
        </mxCell>
        <mxCell id="CeJ-HBvOXXxMZbBYNa6p-4" value="" style="ellipse;whiteSpace=wrap;html=1;aspect=fixed;fontSize=17;fontStyle=1" vertex="1" parent="1">
          <mxGeometry x="580" y="240" width="40" height="40" as="geometry" />
        </mxCell>
        <mxCell id="CeJ-HBvOXXxMZbBYNa6p-9" style="rounded=0;orthogonalLoop=1;jettySize=auto;html=1;exitX=0;exitY=0.5;exitDx=0;exitDy=0;entryX=0.5;entryY=1;entryDx=0;entryDy=0;endArrow=none;endFill=0;" edge="1" parent="1" source="CeJ-HBvOXXxMZbBYNa6p-5" target="CeJ-HBvOXXxMZbBYNa6p-1">
          <mxGeometry relative="1" as="geometry" />
        </mxCell>
        <mxCell id="CeJ-HBvOXXxMZbBYNa6p-5" value="" style="ellipse;whiteSpace=wrap;html=1;aspect=fixed;fontSize=17;fontStyle=1" vertex="1" parent="1">
          <mxGeometry x="540" y="340" width="40" height="40" as="geometry" />
        </mxCell>
      </root>
    </mxGraphModel>
  </diagram>
</mxfile>
